<?xml version="1.0" encoding="UTF-8" standalone="no"?>
<!DOCTYPE svg PUBLIC "-//W3C//DTD SVG 1.1//EN"
 "http://www.w3.org/Graphics/SVG/1.1/DTD/svg11.dtd">
<!-- Generated by graphviz version 2.43.0 (0)
 -->
<!-- Title: %3 Pages: 1 -->
<svg width="254pt" height="105pt"
 viewBox="0.00 0.00 254.44 105.43" xmlns="http://www.w3.org/2000/svg" xmlns:xlink="http://www.w3.org/1999/xlink">
<g id="graph0" class="graph" transform="scale(1 1) rotate(0) translate(4 101.43)">
<title>%3</title>
<polygon fill="white" stroke="transparent" points="-4,4 -4,-101.43 250.44,-101.43 250.44,4 -4,4"/>
<!-- A -->
<g id="node1" class="node">
<title>A</title>
<polygon fill="aqua" stroke="black" points="246.67,-60.27 207.37,-60.27 195.22,-97.65 183.08,-60.27 143.78,-60.27 175.57,-37.16 163.43,0.22 195.22,-22.89 227.02,0.22 214.87,-37.16 246.67,-60.27"/>
<text text-anchor="middle" x="195.22" y="-45.01" font-family="Times,serif" font-size="14.00">A</text>
</g>
<!-- B -->
<g id="node2" class="node">
<title>B</title>
<polygon fill="aqua" stroke="black" points="102.67,-60.27 63.37,-60.27 51.22,-97.65 39.08,-60.27 -0.22,-60.27 31.57,-37.16 19.43,0.22 51.22,-22.89 83.02,0.22 70.87,-37.16 102.67,-60.27"/>
<text text-anchor="middle" x="51.22" y="-45.01" font-family="Times,serif" font-size="14.00">B</text>
</g>
<!-- A&#45;&#45;B -->
<g id="edge1" class="edge">
<title>A&#45;&#45;B</title>
<path fill="none" stroke="red" d="M159.63,-48.71C137.47,-48.71 109.08,-48.71 86.91,-48.71"/>
<text text-anchor="middle" x="116.77" y="-54.71" font-family="Times,serif" font-size="20.00">1</text>
</g>
<!-- C -->
<g id="node3" class="node">
<title>C</title>
<polygon fill="aqua" stroke="black" points="246.67,-60.27 207.37,-60.27 195.22,-97.65 183.08,-60.27 143.78,-60.27 175.57,-37.16 163.43,0.22 195.22,-22.89 227.02,0.22 214.87,-37.16 246.67,-60.27"/>
<text text-anchor="middle" x="195.22" y="-45.01" font-family="Times,serif" font-size="14.00">C</text>
</g>
<!-- A&#45;&#45;C -->
<g id="edge2" class="edge">
<title>A&#45;&#45;C</title>
<path fill="none" stroke="red" d="M195.22,-48.71C195.22,-48.71 195.22,-48.71 195.22,-48.71"/>
<text text-anchor="middle" x="188.72" y="-54.71" font-family="Times,serif" font-size="20.00">4</text>
</g>
<!-- H -->
<g id="node8" class="node">
<title>H</title>
<polygon fill="aqua" stroke="black" points="102.67,-60.27 63.37,-60.27 51.22,-97.65 39.08,-60.27 -0.22,-60.27 31.57,-37.16 19.43,0.22 51.22,-22.89 83.02,0.22 70.87,-37.16 102.67,-60.27"/>
<text text-anchor="middle" x="51.22" y="-45.01" font-family="Times,serif" font-size="14.00">H</text>
</g>
<!-- B&#45;&#45;H -->
<g id="edge4" class="edge">
<title>B&#45;&#45;H</title>
<path fill="none" stroke="red" d="M51.22,-48.71C51.22,-48.71 51.22,-48.71 51.22,-48.71"/>
<text text-anchor="middle" x="44.72" y="-54.71" font-family="Times,serif" font-size="20.00">2</text>
</g>
<!-- C&#45;&#45;B -->
<g id="edge3" class="edge">
<title>C&#45;&#45;B</title>
<path fill="none" stroke="red" d="M159.63,-48.71C137.47,-48.71 109.08,-48.71 86.91,-48.71"/>
<text text-anchor="middle" x="116.77" y="-32.71" font-family="Times,serif" font-size="20.00">2</text>
</g>
<!-- D -->
<g id="node4" class="node">
<title>D</title>
<polygon fill="aqua" stroke="black" points="102.67,-60.27 63.37,-60.27 51.22,-97.65 39.08,-60.27 -0.22,-60.27 31.57,-37.16 19.43,0.22 51.22,-22.89 83.02,0.22 70.87,-37.16 102.67,-60.27"/>
<text text-anchor="middle" x="51.22" y="-45.01" font-family="Times,serif" font-size="14.00">D</text>
</g>
<!-- C&#45;&#45;D -->
<g id="edge6" class="edge">
<title>C&#45;&#45;D</title>
<path fill="none" stroke="red" d="M159.63,-48.71C137.47,-48.71 109.08,-48.71 86.91,-48.71"/>
<text text-anchor="middle" x="129.77" y="-54.71" font-family="Times,serif" font-size="20.00">1</text>
</g>
<!-- E -->
<g id="node5" class="node">
<title>E</title>
<polygon fill="aqua" stroke="black" points="246.67,-60.27 207.37,-60.27 195.22,-97.65 183.08,-60.27 143.78,-60.27 175.57,-37.16 163.43,0.22 195.22,-22.89 227.02,0.22 214.87,-37.16 246.67,-60.27"/>
<text text-anchor="middle" x="195.22" y="-45.01" font-family="Times,serif" font-size="14.00">E</text>
</g>
<!-- C&#45;&#45;E -->
<g id="edge7" class="edge">
<title>C&#45;&#45;E</title>
<path fill="none" stroke="red" d="M195.22,-48.71C195.22,-48.71 195.22,-48.71 195.22,-48.71"/>
<text text-anchor="middle" x="188.72" y="-32.71" font-family="Times,serif" font-size="20.00">3</text>
</g>
<!-- D&#45;&#45;B -->
<g id="edge5" class="edge">
<title>D&#45;&#45;B</title>
<path fill="none" stroke="red" d="M51.22,-48.71C51.22,-48.71 51.22,-48.71 51.22,-48.71"/>
<text text-anchor="middle" x="44.72" y="-32.71" font-family="Times,serif" font-size="20.00">9</text>
</g>
<!-- F -->
<g id="node6" class="node">
<title>F</title>
<polygon fill="aqua" stroke="black" points="102.67,-60.27 63.37,-60.27 51.22,-97.65 39.08,-60.27 -0.22,-60.27 31.57,-37.16 19.43,0.22 51.22,-22.89 83.02,0.22 70.87,-37.16 102.67,-60.27"/>
<text text-anchor="middle" x="51.22" y="-45.01" font-family="Times,serif" font-size="14.00">F</text>
</g>
<!-- D&#45;&#45;F -->
<g id="edge12" class="edge">
<title>D&#45;&#45;F</title>
<path fill="none" stroke="red" d="M51.22,-48.71C51.22,-48.71 51.22,-48.71 51.22,-48.71"/>
<text text-anchor="middle" x="57.72" y="-54.71" font-family="Times,serif" font-size="20.00">3</text>
</g>
<!-- G -->
<g id="node7" class="node">
<title>G</title>
<polygon fill="aqua" stroke="black" points="246.67,-60.27 207.37,-60.27 195.22,-97.65 183.08,-60.27 143.78,-60.27 175.57,-37.16 163.43,0.22 195.22,-22.89 227.02,0.22 214.87,-37.16 246.67,-60.27"/>
<text text-anchor="middle" x="195.22" y="-45.01" font-family="Times,serif" font-size="14.00">G</text>
</g>
<!-- D&#45;&#45;G -->
<g id="edge11" class="edge">
<title>D&#45;&#45;G</title>
<path fill="none" stroke="red" d="M86.82,-48.71C108.97,-48.71 137.37,-48.71 159.54,-48.71"/>
<text text-anchor="middle" x="129.68" y="-32.71" font-family="Times,serif" font-size="20.00">1</text>
</g>
<!-- E&#45;&#45;D -->
<g id="edge8" class="edge">
<title>E&#45;&#45;D</title>
<path fill="none" stroke="red" d="M159.63,-48.71C137.47,-48.71 109.08,-48.71 86.91,-48.71"/>
<text text-anchor="middle" x="116.77" y="-54.71" font-family="Times,serif" font-size="20.00">1</text>
</g>
<!-- E&#45;&#45;F -->
<g id="edge9" class="edge">
<title>E&#45;&#45;F</title>
<path fill="none" stroke="red" d="M159.63,-48.71C137.47,-48.71 109.08,-48.71 86.91,-48.71"/>
<text text-anchor="middle" x="116.77" y="-32.71" font-family="Times,serif" font-size="20.00">1</text>
</g>
<!-- G&#45;&#45;F -->
<g id="edge10" class="edge">
<title>G&#45;&#45;F</title>
<path fill="none" stroke="red" d="M159.63,-48.71C137.47,-48.71 109.08,-48.71 86.91,-48.71"/>
<text text-anchor="middle" x="129.77" y="-54.71" font-family="Times,serif" font-size="20.00">6</text>
</g>
<!-- H&#45;&#45;G -->
<g id="edge13" class="edge">
<title>H&#45;&#45;G</title>
<path fill="none" stroke="red" d="M86.82,-48.71C108.97,-48.71 137.37,-48.71 159.54,-48.71"/>
<text text-anchor="middle" x="136.18" y="-32.71" font-family="Times,serif" font-size="20.00">14</text>
</g>
</g>
</svg>
