<?xml version="1.0" encoding="UTF-8" standalone="no"?>
<!DOCTYPE svg PUBLIC "-//W3C//DTD SVG 1.1//EN"
 "http://www.w3.org/Graphics/SVG/1.1/DTD/svg11.dtd">
<!-- Generated by graphviz version 2.43.0 (0)
 -->
<!-- Title: %3 Pages: 1 -->
<svg width="251pt" height="1193pt"
 viewBox="0.00 0.00 251.44 1193.44" xmlns="http://www.w3.org/2000/svg" xmlns:xlink="http://www.w3.org/1999/xlink">
<g id="graph0" class="graph" transform="scale(1 1) rotate(0) translate(4 1189.44)">
<title>%3</title>
<polygon fill="white" stroke="transparent" points="-4,4 -4,-1189.44 247.44,-1189.44 247.44,4 -4,4"/>
<!-- A -->
<g id="node1" class="node">
<title>A</title>
<polygon fill="aqua" stroke="black" points="102.67,-1148.27 63.37,-1148.27 51.22,-1185.65 39.08,-1148.27 -0.22,-1148.27 31.57,-1125.17 19.43,-1087.79 51.22,-1110.89 83.02,-1087.79 70.87,-1125.17 102.67,-1148.27"/>
<text text-anchor="middle" x="51.22" y="-1133.02" font-family="Times,serif" font-size="14.00">A</text>
</g>
<!-- B -->
<g id="node2" class="node">
<title>B</title>
<polygon fill="aqua" stroke="black" points="113.67,-526.55 74.37,-526.55 62.22,-563.93 50.08,-526.55 10.78,-526.55 42.57,-503.45 30.43,-466.07 62.22,-489.17 94.02,-466.07 81.87,-503.45 113.67,-526.55"/>
<text text-anchor="middle" x="62.22" y="-511.3" font-family="Times,serif" font-size="14.00">B</text>
</g>
<!-- A&#45;&#45;B -->
<g id="edge1" class="edge">
<title>A&#45;&#45;B</title>
<path fill="none" stroke="red" d="M42.05,-1104.29C33.89,-1073.49 23.22,-1025.07 23.22,-982.29 23.22,-982.29 23.22,-982.29 23.22,-669.43 23.22,-620.79 41.87,-566.06 53.37,-536.92"/>
<text text-anchor="middle" x="29.72" y="-820.86" font-family="Times,serif" font-size="20.00">1</text>
</g>
<!-- C -->
<g id="node3" class="node">
<title>C</title>
<polygon fill="aqua" stroke="black" points="157.67,-992.84 118.37,-992.84 106.22,-1030.22 94.08,-992.84 54.78,-992.84 86.57,-969.74 74.43,-932.36 106.22,-955.46 138.02,-932.36 125.87,-969.74 157.67,-992.84"/>
<text text-anchor="middle" x="106.22" y="-977.59" font-family="Times,serif" font-size="14.00">C</text>
</g>
<!-- A&#45;&#45;C -->
<g id="edge2" class="edge">
<title>A&#45;&#45;C</title>
<path fill="none" stroke="red" d="M63.29,-1102.05C73.79,-1072.76 88.72,-1031.1 97.93,-1005.43"/>
<text text-anchor="middle" x="87.72" y="-1054.01" font-family="Times,serif" font-size="20.00">4</text>
</g>
<!-- H -->
<g id="node8" class="node">
<title>H</title>
<polygon fill="aqua" stroke="black" points="107.67,-371.12 68.37,-371.12 56.22,-408.5 44.08,-371.12 4.78,-371.12 36.57,-348.02 24.43,-310.64 56.22,-333.75 88.02,-310.64 75.87,-348.02 107.67,-371.12"/>
<text text-anchor="middle" x="56.22" y="-355.87" font-family="Times,serif" font-size="14.00">H</text>
</g>
<!-- B&#45;&#45;H -->
<g id="edge4" class="edge">
<title>B&#45;&#45;H</title>
<path fill="none" stroke="red" d="M61.22,-488.32C60.31,-465.12 58.96,-430.52 57.89,-403.17"/>
<text text-anchor="middle" x="65.72" y="-432.29" font-family="Times,serif" font-size="20.00">2</text>
</g>
<!-- C&#45;&#45;B -->
<g id="edge3" class="edge">
<title>C&#45;&#45;B</title>
<path fill="none" stroke="red" d="M103.7,-953.66C96.25,-875.05 74.33,-643.81 65.74,-553.11"/>
<text text-anchor="middle" x="91.72" y="-743.15" font-family="Times,serif" font-size="20.00">2</text>
</g>
<!-- D -->
<g id="node4" class="node">
<title>D</title>
<polygon fill="aqua" stroke="black" points="194.67,-681.98 155.37,-681.98 143.22,-719.36 131.08,-681.98 91.78,-681.98 123.57,-658.88 111.43,-621.5 143.22,-644.6 175.02,-621.5 162.87,-658.88 194.67,-681.98"/>
<text text-anchor="middle" x="143.22" y="-666.73" font-family="Times,serif" font-size="14.00">D</text>
</g>
<!-- C&#45;&#45;D -->
<g id="edge6" class="edge">
<title>C&#45;&#45;D</title>
<path fill="none" stroke="red" d="M106.55,-955.14C107.33,-916.63 110.02,-840.81 119.22,-777.15 123.18,-749.77 130.51,-718.97 136.03,-697.72"/>
<text text-anchor="middle" x="125.72" y="-820.86" font-family="Times,serif" font-size="20.00">1</text>
</g>
<!-- E -->
<g id="node5" class="node">
<title>E</title>
<polygon fill="aqua" stroke="black" points="243.67,-837.41 204.37,-837.41 192.22,-874.79 180.08,-837.41 140.78,-837.41 172.57,-814.31 160.43,-776.93 192.22,-800.03 224.02,-776.93 211.87,-814.31 243.67,-837.41"/>
<text text-anchor="middle" x="192.22" y="-822.16" font-family="Times,serif" font-size="14.00">E</text>
</g>
<!-- C&#45;&#45;E -->
<g id="edge7" class="edge">
<title>C&#45;&#45;E</title>
<path fill="none" stroke="red" d="M129.72,-938.37C146.93,-907.67 169.42,-867.54 182.2,-844.74"/>
<text text-anchor="middle" x="160.72" y="-898.58" font-family="Times,serif" font-size="20.00">3</text>
</g>
<!-- D&#45;&#45;B -->
<g id="edge5" class="edge">
<title>D&#45;&#45;B</title>
<path fill="none" stroke="red" d="M121.94,-629.12C105.72,-598.4 84.15,-557.54 71.87,-534.28"/>
<text text-anchor="middle" x="113.72" y="-587.72" font-family="Times,serif" font-size="20.00">9</text>
</g>
<!-- F -->
<g id="node6" class="node">
<title>F</title>
<polygon fill="aqua" stroke="black" points="194.67,-60.27 155.37,-60.27 143.22,-97.65 131.08,-60.27 91.78,-60.27 123.57,-37.16 111.43,0.22 143.22,-22.89 175.02,0.22 162.87,-37.16 194.67,-60.27"/>
<text text-anchor="middle" x="143.22" y="-45.01" font-family="Times,serif" font-size="14.00">F</text>
</g>
<!-- D&#45;&#45;F -->
<g id="edge12" class="edge">
<title>D&#45;&#45;F</title>
<path fill="none" stroke="red" d="M143.22,-644.45C143.22,-614.09 143.22,-561.29 143.22,-516 143.22,-516 143.22,-516 143.22,-203.14 143.22,-167.85 143.22,-127.99 143.22,-97.74"/>
<text text-anchor="middle" x="149.72" y="-354.57" font-family="Times,serif" font-size="20.00">3</text>
</g>
<!-- G -->
<g id="node7" class="node">
<title>G</title>
<polygon fill="aqua" stroke="black" points="115.67,-215.7 76.37,-215.7 64.22,-253.07 52.08,-215.7 12.78,-215.7 44.57,-192.59 32.43,-155.21 64.22,-178.32 96.02,-155.21 83.87,-192.59 115.67,-215.7"/>
<text text-anchor="middle" x="64.22" y="-200.44" font-family="Times,serif" font-size="14.00">G</text>
</g>
<!-- D&#45;&#45;G -->
<g id="edge11" class="edge">
<title>D&#45;&#45;G</title>
<path fill="none" stroke="red" d="M153.12,-637.37C171.23,-572.93 204.01,-424.22 160.22,-310.86 143.87,-268.54 101.84,-232.7 79.2,-215.71"/>
<text text-anchor="middle" x="187.72" y="-432.29" font-family="Times,serif" font-size="20.00">1</text>
</g>
<!-- E&#45;&#45;D -->
<g id="edge8" class="edge">
<title>E&#45;&#45;D</title>
<path fill="none" stroke="red" d="M181.83,-792.32C172.62,-763.47 159.36,-721.97 151.03,-695.87"/>
<text text-anchor="middle" x="176.72" y="-743.15" font-family="Times,serif" font-size="20.00">1</text>
</g>
<!-- E&#45;&#45;F -->
<g id="edge9" class="edge">
<title>E&#45;&#45;F</title>
<path fill="none" stroke="red" d="M202.29,-792.6C211.01,-761.79 222.22,-713.91 222.22,-671.43 222.22,-671.43 222.22,-671.43 222.22,-203.14 222.22,-145.02 176.85,-86.88 154.88,-62.13"/>
<text text-anchor="middle" x="228.72" y="-432.29" font-family="Times,serif" font-size="20.00">1</text>
</g>
<!-- G&#45;&#45;F -->
<g id="edge10" class="edge">
<title>G&#45;&#45;F</title>
<path fill="none" stroke="red" d="M84.57,-163.63C100.38,-132.91 121.61,-91.69 133.71,-68.19"/>
<text text-anchor="middle" x="114.72" y="-121.43" font-family="Times,serif" font-size="20.00">6</text>
</g>
<!-- H&#45;&#45;G -->
<g id="edge13" class="edge">
<title>H&#45;&#45;G</title>
<path fill="none" stroke="red" d="M57.58,-332.55C58.81,-308.95 60.64,-273.77 62.07,-246.36"/>
<text text-anchor="middle" x="73.22" y="-276.86" font-family="Times,serif" font-size="20.00">14</text>
</g>
</g>
</svg>
