<?xml version="1.0" encoding="UTF-8" standalone="no"?>
<!DOCTYPE svg PUBLIC "-//W3C//DTD SVG 1.1//EN"
 "http://www.w3.org/Graphics/SVG/1.1/DTD/svg11.dtd">
<!-- Generated by graphviz version 2.43.0 (0)
 -->
<!-- Title: %3 Pages: 1 -->
<svg width="822pt" height="625pt"
 viewBox="0.00 0.00 822.00 625.00" xmlns="http://www.w3.org/2000/svg" xmlns:xlink="http://www.w3.org/1999/xlink">
<g id="graph0" class="graph" transform="scale(1 1) rotate(0) translate(4 621)">
<title>%3</title>
<polygon fill="white" stroke="transparent" points="-4,4 -4,-621 818,-621 818,4 -4,4"/>
<!-- A -->
<g id="node1" class="node">
<title>A</title>
<image xlink:href="icon_router.png" width="166px" height="113px" preserveAspectRatio="xMinYMin meet" x="648" y="-473"/>
<text text-anchor="middle" x="731" y="-412.8" font-family="Times,serif" font-size="14.00">A</text>
</g>
<!-- B -->
<g id="node2" class="node">
<title>B</title>
<image xlink:href="icon_router.png" width="166px" height="113px" preserveAspectRatio="xMinYMin meet" x="504" y="-545"/>
<text text-anchor="middle" x="587" y="-484.8" font-family="Times,serif" font-size="14.00">B</text>
</g>
<!-- A&#45;&#45;B -->
<g id="edge1" class="edge">
<title>A&#45;&#45;B</title>
<path fill="none" stroke="red" d="M647.65,-458.17C647.53,-458.24 647.4,-458.3 647.28,-458.36"/>
<text text-anchor="middle" x="640.97" y="-464.27" font-family="Times,serif" font-size="20.00" fill="red">1</text>
</g>
<!-- C -->
<g id="node3" class="node">
<title>C</title>
<image xlink:href="icon_router.png" width="166px" height="113px" preserveAspectRatio="xMinYMin meet" x="432" y="-401"/>
<text text-anchor="middle" x="515" y="-340.8" font-family="Times,serif" font-size="14.00">C</text>
</g>
<!-- A&#45;&#45;C -->
<g id="edge2" class="edge">
<title>A&#45;&#45;C</title>
<path fill="none" stroke="red" d="M647.8,-388.77C631.52,-383.34 614.44,-377.65 598.16,-372.22"/>
<text text-anchor="middle" x="616.48" y="-386.49" font-family="Times,serif" font-size="20.00" fill="red">4</text>
</g>
<!-- H -->
<g id="node8" class="node">
<title>H</title>
<image xlink:href="icon_router.png" width="166px" height="113px" preserveAspectRatio="xMinYMin meet" x="216" y="-617"/>
<text text-anchor="middle" x="299" y="-556.8" font-family="Times,serif" font-size="14.00">H</text>
</g>
<!-- B&#45;&#45;H -->
<g id="edge4" class="edge">
<title>B&#45;&#45;H</title>
<path fill="none" stroke="red" d="M503.7,-509.33C465.49,-518.88 420.3,-530.17 382.11,-539.72"/>
<text text-anchor="middle" x="436.41" y="-530.52" font-family="Times,serif" font-size="20.00" fill="red">2</text>
</g>
<!-- C&#45;&#45;B -->
<g id="edge3" class="edge">
<title>C&#45;&#45;B</title>
<path fill="none" stroke="red" d="M543.46,-401.41C548.41,-411.32 553.56,-421.62 558.51,-431.53"/>
<text text-anchor="middle" x="544.49" y="-422.47" font-family="Times,serif" font-size="20.00" fill="red">2</text>
</g>
<!-- D -->
<g id="node4" class="node">
<title>D</title>
<image xlink:href="icon_router.png" width="166px" height="113px" preserveAspectRatio="xMinYMin meet" x="216" y="-329"/>
<text text-anchor="middle" x="299" y="-268.8" font-family="Times,serif" font-size="14.00">D</text>
</g>
<!-- C&#45;&#45;D -->
<g id="edge6" class="edge">
<title>C&#45;&#45;D</title>
<path fill="none" stroke="red" d="M431.8,-316.77C415.52,-311.34 398.44,-305.65 382.16,-300.22"/>
<text text-anchor="middle" x="400.48" y="-314.49" font-family="Times,serif" font-size="20.00" fill="red">1</text>
</g>
<!-- E -->
<g id="node5" class="node">
<title>E</title>
<image xlink:href="icon_router.png" width="166px" height="113px" preserveAspectRatio="xMinYMin meet" x="288" y="-113"/>
<text text-anchor="middle" x="371" y="-52.8" font-family="Times,serif" font-size="14.00">E</text>
</g>
<!-- C&#45;&#45;E -->
<g id="edge7" class="edge">
<title>C&#45;&#45;E</title>
<path fill="none" stroke="red" d="M486.72,-287.94C461.49,-237.49 424.74,-163.98 399.46,-113.42"/>
<text text-anchor="middle" x="436.59" y="-206.68" font-family="Times,serif" font-size="20.00" fill="red">3</text>
</g>
<!-- D&#45;&#45;B -->
<g id="edge5" class="edge">
<title>D&#45;&#45;B</title>
<path fill="none" stroke="red" d="M374.67,-329.25C416.83,-360.88 469.17,-400.13 511.34,-431.75"/>
<text text-anchor="middle" x="436.5" y="-386.5" font-family="Times,serif" font-size="20.00" fill="red">9</text>
</g>
<!-- F -->
<g id="node6" class="node">
<title>F</title>
<image xlink:href="icon_router.png" width="166px" height="113px" preserveAspectRatio="xMinYMin meet" x="0" y="-257"/>
<text text-anchor="middle" x="83" y="-196.8" font-family="Times,serif" font-size="14.00">F</text>
</g>
<!-- D&#45;&#45;F -->
<g id="edge12" class="edge">
<title>D&#45;&#45;F</title>
<path fill="none" stroke="red" d="M215.8,-244.77C199.52,-239.34 182.44,-233.65 166.16,-228.22"/>
<text text-anchor="middle" x="184.48" y="-242.49" font-family="Times,serif" font-size="20.00" fill="red">3</text>
</g>
<!-- G -->
<g id="node7" class="node">
<title>G</title>
<image xlink:href="icon_router.png" width="166px" height="113px" preserveAspectRatio="xMinYMin meet" x="72" y="-473"/>
<text text-anchor="middle" x="155" y="-412.8" font-family="Times,serif" font-size="14.00">G</text>
</g>
<!-- D&#45;&#45;G -->
<g id="edge11" class="edge">
<title>D&#45;&#45;G</title>
<path fill="none" stroke="red" d="M242.09,-329.41C232.18,-339.32 221.88,-349.62 211.97,-359.53"/>
<text text-anchor="middle" x="233.53" y="-350.47" font-family="Times,serif" font-size="20.00" fill="red">1</text>
</g>
<!-- E&#45;&#45;D -->
<g id="edge8" class="edge">
<title>E&#45;&#45;D</title>
<path fill="none" stroke="red" d="M352.08,-113.25C341.54,-144.88 328.46,-184.13 317.92,-215.75"/>
<text text-anchor="middle" x="328.5" y="-170.5" font-family="Times,serif" font-size="20.00" fill="red">1</text>
</g>
<!-- E&#45;&#45;F -->
<g id="edge9" class="edge">
<title>E&#45;&#45;F</title>
<path fill="none" stroke="red" d="M287.7,-98.15C249.49,-117.26 204.3,-139.85 166.11,-158.94"/>
<text text-anchor="middle" x="220.41" y="-134.55" font-family="Times,serif" font-size="20.00" fill="red">1</text>
</g>
<!-- G&#45;&#45;F -->
<g id="edge10" class="edge">
<title>G&#45;&#45;F</title>
<path fill="none" stroke="red" d="M136.08,-359.75C125.54,-328.12 112.46,-288.87 101.92,-257.25"/>
<text text-anchor="middle" x="112.5" y="-314.5" font-family="Times,serif" font-size="20.00" fill="red">6</text>
</g>
<!-- H&#45;&#45;G -->
<g id="edge13" class="edge">
<title>H&#45;&#45;G</title>
<path fill="none" stroke="red" d="M242.09,-503.59C232.18,-493.68 221.88,-483.38 211.97,-473.47"/>
<text text-anchor="middle" x="214.03" y="-494.53" font-family="Times,serif" font-size="20.00" fill="red">14</text>
</g>
</g>
</svg>
